<?xml version="1.0" standalone="no"?>
<!DOCTYPE svg PUBLIC "-//W3C//DTD SVG 20010904//EN"
 "http://www.w3.org/TR/2001/REC-SVG-20010904/DTD/svg10.dtd">
<svg version="1.0" xmlns="http://www.w3.org/2000/svg"
 width="260.000000pt" height="260.000000pt" viewBox="0 0 260.000000 260.000000"
 preserveAspectRatio="xMidYMid meet">
<metadata>
Created by potrace 1.14, written by Peter Selinger 2001-2017
</metadata>
<g transform="translate(0.000000,260.000000) scale(0.100000,-0.100000)"
fill="#000000" stroke="none">
<path d="M831 2196 l-73 -74 86 -87 87 -87 -65 -59 c-35 -32 -78 -80 -96 -107
l-31 -47 -142 -2 c-78 0 -147 -2 -153 -2 -7 -1 -11 -36 -11 -106 0 -89 3 -105
16 -106 9 -1 59 -2 111 -3 69 -1 95 -4 94 -13 -1 -7 -2 -56 -2 -108 l-2 -95
-108 0 -109 0 0 -108 1 -108 104 1 c57 0 105 -2 107 -5 2 -3 5 -52 7 -110 l3
-105 -100 -1 c-55 0 -105 -1 -111 -2 -8 -1 -11 -36 -11 -107 l1 -105 152 0
151 0 25 -38 c88 -132 230 -229 398 -270 205 -51 438 17 596 174 39 39 79 85
88 102 l17 32 152 0 153 0 0 109 0 108 -110 -1 c-99 -1 -111 1 -110 17 0 9 1
59 2 110 l2 92 107 0 108 0 1 108 0 107 -108 0 -108 0 0 88 c0 48 -3 96 -6
108 -5 20 -2 20 93 19 54 0 105 1 114 3 13 3 16 21 15 110 l-1 107 -151 -1
-151 -1 -27 43 c-15 24 -59 72 -97 108 l-71 65 88 87 87 86 -77 76 -76 77
-118 -118 -118 -117 -49 9 c-53 10 -193 8 -235 -3 -22 -6 -39 7 -140 109 -63
63 -117 115 -120 115 -3 0 -38 -33 -79 -74z m684 -789 l1 -107 -216 2 -215 3
-1 100 c0 55 0 103 2 106 2 3 99 5 216 5 l213 -1 0 -108z m-5 -326 c3 -1 6
-48 6 -106 0 -88 -2 -105 -15 -106 -65 -4 -389 -4 -402 1 -12 4 -15 24 -15
105 0 55 3 102 7 105 6 4 399 5 419 1z"/>
</g>
</svg>
